HIERARCHY
ROOT Hips
{
	OFFSET 0.000000 0.000000 0.000000 
	CHANNELS 6 Xposition Yposition Zposition Zrotation Yrotation Xrotation
	JOINT LeftUpLeg
	{
		OFFSET 1.363060 -1.794630 0.839290 
		CHANNELS 3 Zrotation Yrotation Xrotation
		JOINT LeftLeg
		{
			OFFSET 2.448110 -6.726130 0.000000 
			CHANNELS 3 Zrotation Yrotation Xrotation
			JOINT LeftFoot
			{
				OFFSET 2.562200 -7.039590 0.000000 
				CHANNELS 3 Zrotation Yrotation Xrotation
				JOINT LeftToeBase
				{
					OFFSET 0.157640 -0.433110 2.322550 
					CHANNELS 3 Zrotation Yrotation Xrotation
					End Site
					{
						OFFSET 0.000000 0.000000 0.000000 
					}
				}
			}
		}
	}
	JOINT RightUpLeg
	{
		OFFSET -1.305520 -1.794630 0.839290 
		CHANNELS 3 Zrotation Yrotation Xrotation
		JOINT RightLeg
		{
			OFFSET -2.542530 -6.985550 0.000000 
			CHANNELS 3 Zrotation Yrotation Xrotation
			JOINT RightFoot
			{
				OFFSET -2.568260 -7.056230 0.000000 
				CHANNELS 3 Zrotation Yrotation Xrotation
				JOINT RightToeBase
				{
					OFFSET -0.164730 -0.452590 2.363150 
					CHANNELS 3 Zrotation Yrotation Xrotation
					End Site
					{
						OFFSET 0.000000 0.000000 0.000000 
					}
				}
			}
		}
	}
	JOINT Spine
	{
		OFFSET 0.028270 2.035590 -0.193380 
		CHANNELS 3 Zrotation Yrotation Xrotation
		JOINT Spine1
		{
			OFFSET 0.056720 2.048850 -0.042750 
			CHANNELS 3 Zrotation Yrotation Xrotation
			JOINT Neck1
			{
				OFFSET -0.054170 1.746240 0.172020 
				CHANNELS 3 Zrotation Yrotation Xrotation
				JOINT Head
				{
					OFFSET 0.104070 1.761360 -0.123970 
					CHANNELS 3 Zrotation Yrotation Xrotation
					End Site
					{
						OFFSET 0.000000 0.000000 0.000000 
					}
				}
			}
			JOINT LeftArm
			{
				OFFSET 3.362410 1.200890 -0.311210 
				CHANNELS 3 Zrotation Yrotation Xrotation
				JOINT LeftForeArm
				{
					OFFSET 4.983000 -0.000000 -0.000000 
					CHANNELS 3 Zrotation Yrotation Xrotation
					JOINT LeftHand
					{
						OFFSET 3.483560 -0.000000 -0.000000 
						CHANNELS 3 Zrotation Yrotation Xrotation
						JOINT LeftHandIndex1
						{
							OFFSET 0.715260 -0.000000 -0.000000 
							CHANNELS 3 Zrotation Yrotation Xrotation
							End Site
							{
								OFFSET 0.000000 0.000000 0.000000 
							}
						}
					}
				}
			}
			JOINT RightArm
			{
				OFFSET -3.136600 1.374050 -0.404650 
				CHANNELS 3 Zrotation Yrotation Xrotation
				JOINT RightForeArm
				{
					OFFSET -5.241900 -0.000000 -0.000000 
					CHANNELS 3 Zrotation Yrotation Xrotation
					JOINT RightHand
					{
						OFFSET -3.444170 -0.000000 -0.000000 
						CHANNELS 3 Zrotation Yrotation Xrotation
						JOINT RightHandIndex1
						{
							OFFSET -0.622530 -0.000000 -0.000000 
							CHANNELS 3 Zrotation Yrotation Xrotation
							End Site
							{
								OFFSET 0.000000 0.000000 0.000000 
							}
						}
					}
				}
			}
		}
	}
}
MOTION
Frames: 13
Frame Time: 0.041667
7.736100 9.021100 12.886000 179.843000 -0.925300 100.146000 -26.788400 -7.676600 8.374400 1.836400 8.516600 24.294500 0.049400 1.230600 -4.841500 2.354600 -9.568700 -27.590900 20.315800 12.861000 3.159400 -1.176200 -6.883600 19.371100 0.472900 -12.670700 -0.578500 -0.489100 -4.484400 12.443700 2.375300 -2.492100 -13.568300 3.575800 -1.438200 -12.532900 -4.262100 0.077400 42.523800 -1.380000 0.622800 20.775800 90.355600 13.512700 -6.668800 22.635700 -33.688000 -6.935200 0.000000 0.000000 -87.437500 -7.125000 0.000000 0.000000 -92.201500 -15.330000 -35.201900 -21.902500 32.866700 -6.532900 0.000000 0.000000 -67.434600 7.125000 0.000000 0.000000 
7.734500 9.015400 12.868100 179.859000 -0.833400 98.856800 -26.992700 -6.766800 10.351100 1.795600 8.426800 24.018000 0.043000 1.215300 -4.564200 2.583500 -9.988100 -28.938100 20.722900 12.386400 4.443400 -1.125700 -6.739400 18.945500 0.481100 -12.840100 -0.393400 -0.481600 -4.450100 12.346500 2.318200 -2.210000 -13.290900 3.445200 -1.274400 -13.123800 -4.056700 -0.151000 42.510400 -1.239400 0.509400 20.670900 89.185100 12.707200 -9.807600 22.535400 -33.576900 -6.879600 0.000000 0.000000 -84.735300 -7.125000 0.000000 0.000000 -92.476600 -15.076800 -34.821900 -21.811200 32.763000 -6.483400 0.000000 0.000000 -67.294300 7.125000 0.000000 0.000000 
7.732600 9.011100 12.851000 179.865000 -0.737400 97.563800 -27.151700 -5.867800 12.286100 1.757900 8.342600 23.759500 0.038700 1.118900 -4.306800 2.587600 -9.995400 -28.961800 21.118700 11.854100 5.715800 -1.083300 -6.615200 18.580200 0.479000 -12.854000 -0.267900 -0.462100 -4.360300 12.092500 2.287000 -1.939200 -13.014900 3.337900 -1.116300 -13.725400 -1.910000 -0.431500 42.634800 -1.112200 -2.514900 20.659300 88.011700 11.791400 -13.058100 22.442400 -33.473400 -6.828300 0.000000 0.000000 -81.895700 -7.125000 0.000000 0.000000 -92.777100 -14.949300 -34.186400 -21.767600 32.713300 -6.459800 0.000000 0.000000 -67.484900 7.125000 0.000000 0.000000 
7.733200 9.003900 12.815100 179.889000 -0.691800 95.748000 -27.408600 -4.857100 14.630200 1.721300 8.259700 23.505600 0.018300 1.056900 -3.177800 2.560600 -9.947300 -28.806100 21.587700 11.108200 7.659800 -1.042700 -6.494100 18.225000 0.484500 -12.896400 -0.359600 -0.465600 -4.376800 12.139100 2.287500 -1.666500 -12.591400 3.332600 -0.925000 -14.533600 -1.683100 -0.603200 42.650500 -0.937600 -2.651900 20.597600 86.597500 10.598100 -17.217100 22.304600 -33.319600 -6.752400 0.000000 0.000000 -78.130300 -7.125000 0.000000 0.000000 -93.149300 -14.787700 -33.662500 -21.708300 32.645800 -6.427800 0.000000 0.000000 -67.486400 7.125000 0.000000 0.000000 
7.733300 8.999300 12.789700 179.893000 -0.628700 94.419100 -27.569100 -4.043200 16.473300 1.688500 8.184700 23.276500 0.008000 1.032600 -2.387400 2.563500 -9.952400 -28.822900 21.947300 10.559400 9.049200 -1.005900 -6.381700 17.896100 0.488200 -12.947200 -0.353600 -0.461400 -4.357300 12.084100 2.287900 -1.448400 -12.290200 3.288900 -0.785200 -15.151800 -1.492500 -0.739900 42.654700 -0.796500 -2.756900 20.534100 85.568200 9.556300 -20.518900 22.184000 -33.184400 -6.686300 0.000000 0.000000 -75.075900 -7.125000 0.000000 0.000000 -93.412700 -14.636900 -33.267400 -21.661300 32.592100 -6.402400 0.000000 0.000000 -67.500100 7.125000 0.000000 0.000000 
7.734300 8.994800 12.756800 179.902000 -0.574700 92.886000 -27.748500 -3.198500 18.466200 1.658800 8.116100 23.067100 -0.000100 1.074200 -1.524900 2.537100 -9.905000 -28.669700 22.339700 9.936600 10.678900 -0.976400 -6.290400 17.629500 0.494300 -12.994700 -0.449500 -0.459100 -4.346600 12.054000 2.287600 -1.229200 -11.921800 3.248600 -0.638900 -15.838100 -1.288100 -0.874200 42.669700 -0.647500 -2.860000 20.490700 84.554600 8.335100 -24.221600 22.011300 -32.989800 -6.592000 0.000000 0.000000 -71.550000 -7.125000 0.000000 0.000000 -93.684300 -14.560200 -32.776400 -21.634200 32.561200 -6.387900 0.000000 0.000000 -67.633800 7.125000 0.000000 0.000000 
7.735900 8.990700 12.720300 179.912000 -0.533300 91.308600 -27.937800 -2.395400 20.426400 1.635500 8.061600 22.901500 -0.004400 1.189900 -0.593800 2.487700 -9.815400 -28.381100 22.721300 9.293100 12.395700 -0.950100 -6.207400 17.387300 0.502600 -13.052500 -0.607200 -0.456100 -4.332400 12.013600 2.284900 -1.019900 -11.531000 3.206000 -0.497700 -16.533700 -1.079700 -1.001700 42.691800 -0.497300 -2.957900 20.462600 83.639600 6.981500 -28.143900 21.783800 -32.731800 -6.468600 0.000000 0.000000 -67.709400 -7.125000 0.000000 0.000000 -93.948400 -14.540100 -32.236600 -21.623700 32.549100 -6.382200 0.000000 0.000000 -67.856500 7.125000 0.000000 0.000000 
7.737900 8.986900 12.682000 179.924000 -0.503600 89.763100 -28.129900 -1.660800 22.269600 1.619000 8.022700 22.783000 -0.003900 1.388600 0.386800 2.433700 -9.716300 -28.062900 23.077100 8.657200 14.107600 -0.928500 -6.138400 17.186500 0.513700 -13.125400 -0.836600 -0.462400 -4.361700 12.096600 2.281900 -0.827100 -11.139500 3.164300 -0.366900 -17.207300 -0.872700 -1.119000 42.720600 -0.349300 -3.049000 20.449100 82.863400 5.518800 -32.215700 21.495600 -32.402300 -6.313400 0.000000 0.000000 -63.617600 -7.125000 0.000000 0.000000 -94.203500 -14.575300 -31.654000 -21.629700 32.555900 -6.385400 0.000000 0.000000 -68.173700 7.125000 0.000000 0.000000 
7.740100 8.982700 12.644100 179.938000 -0.484600 88.312000 -28.314600 -1.009000 23.909300 1.611100 8.004100 22.726600 0.003200 1.649800 1.455100 2.361800 -9.582100 -27.633700 23.394000 8.048000 15.743200 -0.911900 -6.085000 17.031300 0.524500 -13.195800 -1.069800 -0.466700 -4.381800 12.153400 2.284600 -0.653300 -10.770200 3.133700 -0.248400 -17.844000 -0.676100 -1.220700 42.755700 -0.206100 -3.134100 20.444200 82.245700 3.981900 -36.334200 21.150800 -32.003900 -6.129600 0.000000 0.000000 -59.386600 -7.125000 0.000000 0.000000 -94.455800 -14.629000 -31.076900 -21.642400 32.570500 -6.392300 0.000000 0.000000 -68.529300 7.125000 0.000000 0.000000 
7.742400 8.979200 12.613000 179.945000 -0.480900 87.176300 -28.486100 -0.526500 25.116500 1.612800 8.008100 22.738800 0.018900 1.958100 2.614000 2.286600 -9.439200 -27.179100 23.625600 7.544800 17.065200 -0.900800 -6.048600 16.925400 0.532500 -13.241500 -1.271600 -0.472900 -4.410300 12.233900 2.301400 -0.524600 -10.485300 3.138700 -0.156600 -18.352400 -0.514300 -1.281700 42.793300 -0.081200 -3.200400 20.443400 81.661400 3.485600 -37.958400 21.377200 -32.266000 -6.250100 0.000000 0.000000 -57.871900 -7.125000 0.000000 0.000000 -94.668600 -14.660900 -30.643900 -21.653700 32.583400 -6.398300 0.000000 0.000000 -68.819800 7.125000 0.000000 0.000000 
7.744800 8.976300 12.590800 179.942000 -0.492000 86.407700 -28.636100 -0.222900 25.832900 1.624100 8.034800 22.819800 0.044800 2.268100 3.843600 2.218200 -9.306600 -26.759100 23.765400 7.162700 18.015000 -0.895400 -6.031100 16.874700 0.535700 -13.248300 -1.399100 -0.477600 -4.432100 12.295600 2.331500 -0.445200 -10.301500 3.184100 -0.092700 -18.715100 -0.392500 -1.299600 42.831000 0.021400 -3.245600 20.442400 81.227500 3.052000 -39.195100 21.526300 -32.437500 -6.329900 0.000000 0.000000 -56.664900 -7.125000 0.000000 0.000000 -94.831100 -14.649000 -30.393300 -21.658000 32.588300 -6.400600 0.000000 0.000000 -69.003100 7.125000 0.000000 0.000000 
7.747400 8.973700 12.577200 179.932000 -0.518100 85.988300 -28.771300 -0.094300 26.090000 1.643500 8.080400 22.958500 0.081200 2.567600 5.102800 2.157700 -9.187100 -26.382200 23.821200 6.895000 18.613100 -0.895900 -6.032800 16.879700 0.533900 -13.216400 -1.442000 -0.473700 -4.414000 12.244300 2.362800 -0.411000 -10.215700 3.251900 -0.055300 -18.942200 -0.300700 -1.287900 42.869800 0.103700 -3.273800 20.440500 80.953900 2.681400 -40.073900 21.592600 -32.513600 -6.365500 0.000000 0.000000 -55.753300 -7.125000 0.000000 0.000000 -94.931300 -14.585800 -30.320000 -21.654100 32.583900 -6.398600 0.000000 0.000000 -69.066200 7.125000 0.000000 0.000000 
7.750300 8.971800 12.573700 179.912000 -0.560800 85.963500 -28.890900 -0.157700 25.856100 1.668900 8.139400 23.138400 0.126100 2.820900 6.323500 2.105500 -9.082400 -26.053500 23.783300 6.756900 18.808700 -0.902500 -6.054200 16.941900 0.525900 -13.129800 -1.384900 -0.461600 -4.358100 12.086400 2.383000 -0.416300 -10.242300 3.319100 -0.045400 -19.019400 -0.245100 -1.254000 42.906000 0.157400 -3.284800 20.434800 80.870900 2.383600 -40.565100 21.556200 -32.471800 -6.345900 0.000000 0.000000 -55.191100 -7.125000 0.000000 0.000000 -94.959600 -14.469200 -30.401400 -21.643000 32.571200 -6.392600 0.000000 0.000000 -69.015800 7.125000 0.000000 0.000000 
